<svg width="1440" height="900" viewBox="0 0 1440 900" fill="none" xmlns="http://www.w3.org/2000/svg">
<g clip-path="url(#clip0_26_290)">
<rect width="1440" height="900" fill="white"/>
<path d="M0 0H1440" stroke="#DFD9D9" stroke-opacity="0.4"/>
<path d="M0 24H1440" stroke="#DFD9D9" stroke-opacity="0.4"/>
<path d="M0 48H1440" stroke="#DFD9D9" stroke-opacity="0.4"/>
<path d="M0 72H1440" stroke="#DFD9D9" stroke-opacity="0.4"/>
<path d="M0 96H1440" stroke="#DFD9D9" stroke-opacity="0.4"/>
<path d="M0 120H1440" stroke="#DFD9D9" stroke-opacity="0.4"/>
<path d="M0 144H1440" stroke="#DFD9D9" stroke-opacity="0.4"/>
<path d="M0 168H1440" stroke="#DFD9D9" stroke-opacity="0.4"/>
<path d="M0 192H1440" stroke="#DFD9D9" stroke-opacity="0.4"/>
<path d="M0 216H1440" stroke="#DFD9D9" stroke-opacity="0.4"/>
<path d="M0 240H1440" stroke="#DFD9D9" stroke-opacity="0.4"/>
<path d="M0 264H1440" stroke="#DFD9D9" stroke-opacity="0.4"/>
<path d="M0 288H1440" stroke="#DFD9D9" stroke-opacity="0.4"/>
<path d="M0 312H1440" stroke="#DFD9D9" stroke-opacity="0.4"/>
<path d="M0 336H1440" stroke="#DFD9D9" stroke-opacity="0.4"/>
<path d="M0 360H1440" stroke="#DFD9D9" stroke-opacity="0.4"/>
<path d="M0 384H1440" stroke="#DFD9D9" stroke-opacity="0.4"/>
<path d="M0 408H1440" stroke="#DFD9D9" stroke-opacity="0.4"/>
<path d="M0 432H1440" stroke="#DFD9D9" stroke-opacity="0.4"/>
<path d="M0 456H1440" stroke="#DFD9D9" stroke-opacity="0.4"/>
<path d="M0 480H1440" stroke="#DFD9D9" stroke-opacity="0.4"/>
<path d="M0 504H1440" stroke="#DFD9D9" stroke-opacity="0.4"/>
<path d="M0 528H1440" stroke="#DFD9D9" stroke-opacity="0.4"/>
<path d="M0 552H1440" stroke="#DFD9D9" stroke-opacity="0.4"/>
<path d="M0 576H1440" stroke="#DFD9D9" stroke-opacity="0.4"/>
<path d="M0 600H1440" stroke="#DFD9D9" stroke-opacity="0.4"/>
<path d="M0 624H1440" stroke="#DFD9D9" stroke-opacity="0.4"/>
<path d="M0 648H1440" stroke="#DFD9D9" stroke-opacity="0.4"/>
<path d="M0 672H1440" stroke="#DFD9D9" stroke-opacity="0.4"/>
<path d="M0 696H1440" stroke="#DFD9D9" stroke-opacity="0.4"/>
<path d="M0 720H1440" stroke="#DFD9D9" stroke-opacity="0.4"/>
<path d="M0 744H1440" stroke="#DFD9D9" stroke-opacity="0.4"/>
<path d="M0 768H1440" stroke="#DFD9D9" stroke-opacity="0.4"/>
<path d="M0 792H1440" stroke="#DFD9D9" stroke-opacity="0.4"/>
<path d="M0 816H1440" stroke="#DFD9D9" stroke-opacity="0.4"/>
<path d="M0 840H1440" stroke="#DFD9D9" stroke-opacity="0.4"/>
<path d="M0 864H1440" stroke="#DFD9D9" stroke-opacity="0.4"/>
<path d="M0 888H1440" stroke="#DFD9D9" stroke-opacity="0.4"/>
<line x1="0.500061" y1="2.18557e-08" x2="0.500022" y2="900" stroke="#DFD9D9" stroke-opacity="0.4"/>
<line x1="24.5001" y1="2.18557e-08" x2="24.5" y2="900" stroke="#DFD9D9" stroke-opacity="0.4"/>
<line x1="48.5001" y1="2.18557e-08" x2="48.5001" y2="900" stroke="#DFD9D9" stroke-opacity="0.4"/>
<line x1="72.5002" y1="2.18557e-08" x2="72.5001" y2="900" stroke="#DFD9D9" stroke-opacity="0.4"/>
<line x1="96.5002" y1="2.18557e-08" x2="96.5001" y2="900" stroke="#DFD9D9" stroke-opacity="0.4"/>
<line x1="120.5" y1="2.18557e-08" x2="120.5" y2="900" stroke="#DFD9D9" stroke-opacity="0.4"/>
<line x1="144.5" y1="2.18557e-08" x2="144.5" y2="900" stroke="#DFD9D9" stroke-opacity="0.4"/>
<line x1="168.5" y1="2.18557e-08" x2="168.5" y2="900" stroke="#DFD9D9" stroke-opacity="0.4"/>
<line x1="192.5" y1="2.18557e-08" x2="192.5" y2="900" stroke="#DFD9D9" stroke-opacity="0.4"/>
<line x1="216.5" y1="2.18557e-08" x2="216.5" y2="900" stroke="#DFD9D9" stroke-opacity="0.4"/>
<line x1="240.5" y1="2.18557e-08" x2="240.5" y2="900" stroke="#DFD9D9" stroke-opacity="0.4"/>
<line x1="264.5" y1="2.18557e-08" x2="264.5" y2="900" stroke="#DFD9D9" stroke-opacity="0.4"/>
<line x1="288.5" y1="2.18557e-08" x2="288.5" y2="900" stroke="#DFD9D9" stroke-opacity="0.4"/>
<line x1="312.501" y1="2.18557e-08" x2="312.501" y2="900" stroke="#DFD9D9" stroke-opacity="0.4"/>
<line x1="336.501" y1="2.18557e-08" x2="336.501" y2="900" stroke="#DFD9D9" stroke-opacity="0.4"/>
<line x1="360.501" y1="2.18557e-08" x2="360.501" y2="900" stroke="#DFD9D9" stroke-opacity="0.4"/>
<line x1="384.501" y1="2.18557e-08" x2="384.501" y2="900" stroke="#DFD9D9" stroke-opacity="0.4"/>
<line x1="408.501" y1="2.18557e-08" x2="408.501" y2="900" stroke="#DFD9D9" stroke-opacity="0.4"/>
<line x1="432.501" y1="2.18557e-08" x2="432.501" y2="900" stroke="#DFD9D9" stroke-opacity="0.4"/>
<line x1="456.501" y1="2.18557e-08" x2="456.501" y2="900" stroke="#DFD9D9" stroke-opacity="0.4"/>
<line x1="480.501" y1="2.18557e-08" x2="480.501" y2="900" stroke="#DFD9D9" stroke-opacity="0.4"/>
<line x1="504.501" y1="2.18557e-08" x2="504.501" y2="900" stroke="#DFD9D9" stroke-opacity="0.4"/>
<line x1="528.501" y1="2.18557e-08" x2="528.501" y2="900" stroke="#DFD9D9" stroke-opacity="0.4"/>
<line x1="552.501" y1="2.18557e-08" x2="552.501" y2="900" stroke="#DFD9D9" stroke-opacity="0.4"/>
<line x1="576.501" y1="2.18557e-08" x2="576.501" y2="900" stroke="#DFD9D9" stroke-opacity="0.4"/>
<line x1="600.501" y1="2.18557e-08" x2="600.501" y2="900" stroke="#DFD9D9" stroke-opacity="0.4"/>
<line x1="624.501" y1="2.18557e-08" x2="624.501" y2="900" stroke="#DFD9D9" stroke-opacity="0.4"/>
<line x1="648.501" y1="2.18557e-08" x2="648.501" y2="900" stroke="#DFD9D9" stroke-opacity="0.4"/>
<line x1="672.501" y1="2.18557e-08" x2="672.501" y2="900" stroke="#DFD9D9" stroke-opacity="0.4"/>
<line x1="696.501" y1="2.18557e-08" x2="696.501" y2="900" stroke="#DFD9D9" stroke-opacity="0.4"/>
<line x1="720.501" y1="2.18557e-08" x2="720.501" y2="900" stroke="#DFD9D9" stroke-opacity="0.4"/>
<line x1="744.501" y1="2.18557e-08" x2="744.501" y2="900" stroke="#DFD9D9" stroke-opacity="0.4"/>
<line x1="768.501" y1="2.18557e-08" x2="768.501" y2="900" stroke="#DFD9D9" stroke-opacity="0.4"/>
<line x1="792.501" y1="2.18557e-08" x2="792.501" y2="900" stroke="#DFD9D9" stroke-opacity="0.4"/>
<line x1="816.502" y1="2.18557e-08" x2="816.502" y2="900" stroke="#DFD9D9" stroke-opacity="0.4"/>
<line x1="840.502" y1="2.18557e-08" x2="840.502" y2="900" stroke="#DFD9D9" stroke-opacity="0.4"/>
<line x1="864.502" y1="2.18557e-08" x2="864.502" y2="900" stroke="#DFD9D9" stroke-opacity="0.4"/>
<line x1="888.502" y1="2.18557e-08" x2="888.502" y2="900" stroke="#DFD9D9" stroke-opacity="0.4"/>
<line x1="912.502" y1="2.18557e-08" x2="912.502" y2="900" stroke="#DFD9D9" stroke-opacity="0.4"/>
<line x1="936.502" y1="2.18557e-08" x2="936.502" y2="900" stroke="#DFD9D9" stroke-opacity="0.4"/>
<line x1="960.502" y1="2.18557e-08" x2="960.502" y2="900" stroke="#DFD9D9" stroke-opacity="0.4"/>
<line x1="984.502" y1="2.18557e-08" x2="984.502" y2="900" stroke="#DFD9D9" stroke-opacity="0.4"/>
<line x1="1008.5" y1="2.18557e-08" x2="1008.5" y2="900" stroke="#DFD9D9" stroke-opacity="0.4"/>
<line x1="1032.5" y1="2.18557e-08" x2="1032.5" y2="900" stroke="#DFD9D9" stroke-opacity="0.4"/>
<line x1="1056.5" y1="2.18557e-08" x2="1056.5" y2="900" stroke="#DFD9D9" stroke-opacity="0.4"/>
<line x1="1080.5" y1="2.18557e-08" x2="1080.5" y2="900" stroke="#DFD9D9" stroke-opacity="0.4"/>
<line x1="1104.5" y1="2.18557e-08" x2="1104.5" y2="900" stroke="#DFD9D9" stroke-opacity="0.4"/>
<line x1="1128.5" y1="2.18557e-08" x2="1128.5" y2="900" stroke="#DFD9D9" stroke-opacity="0.4"/>
<line x1="1152.5" y1="2.18557e-08" x2="1152.5" y2="900" stroke="#DFD9D9" stroke-opacity="0.4"/>
<line x1="1176.5" y1="2.18557e-08" x2="1176.5" y2="900" stroke="#DFD9D9" stroke-opacity="0.4"/>
<line x1="1200.5" y1="2.18557e-08" x2="1200.5" y2="900" stroke="#DFD9D9" stroke-opacity="0.4"/>
<line x1="1224.5" y1="2.18557e-08" x2="1224.5" y2="900" stroke="#DFD9D9" stroke-opacity="0.4"/>
<line x1="1248.5" y1="2.18557e-08" x2="1248.5" y2="900" stroke="#DFD9D9" stroke-opacity="0.4"/>
<line x1="1272.5" y1="2.18557e-08" x2="1272.5" y2="900" stroke="#DFD9D9" stroke-opacity="0.4"/>
<line x1="1296.5" y1="2.18557e-08" x2="1296.5" y2="900" stroke="#DFD9D9" stroke-opacity="0.4"/>
<line x1="1320.5" y1="2.18557e-08" x2="1320.5" y2="900" stroke="#DFD9D9" stroke-opacity="0.4"/>
<line x1="1344.5" y1="2.18557e-08" x2="1344.5" y2="900" stroke="#DFD9D9" stroke-opacity="0.4"/>
<line x1="1368.5" y1="2.18557e-08" x2="1368.5" y2="900" stroke="#DFD9D9" stroke-opacity="0.4"/>
<line x1="1392.5" y1="2.18557e-08" x2="1392.5" y2="900" stroke="#DFD9D9" stroke-opacity="0.4"/>
<line x1="1416.5" y1="2.18557e-08" x2="1416.5" y2="900" stroke="#DFD9D9" stroke-opacity="0.4"/>
</g>
<defs>
<clipPath id="clip0_26_290">
<rect width="1440" height="900" fill="white"/>
</clipPath>
</defs>
</svg>
